<svg width="1600" height="148" viewBox="0 0 1600 148" fill="none" xmlns="http://www.w3.org/2000/svg">
<path d="M1600 0H0V148H1600V0Z" fill="#F8F3F4"/>
<path d="M240.992 68.492C240.92 68.612 240.84 68.704 240.752 68.768C240.672 68.824 240.572 68.852 240.452 68.852C240.316 68.852 240.156 68.784 239.972 68.648C239.788 68.512 239.556 68.364 239.276 68.204C239.004 68.036 238.672 67.884 238.28 67.748C237.896 67.612 237.428 67.544 236.876 67.544C236.356 67.544 235.896 67.616 235.496 67.76C235.104 67.896 234.772 68.084 234.5 68.324C234.236 68.564 234.036 68.848 233.9 69.176C233.764 69.496 233.696 69.844 233.696 70.22C233.696 70.7 233.812 71.1 234.044 71.42C234.284 71.732 234.596 72 234.98 72.224C235.372 72.448 235.812 72.644 236.3 72.812C236.796 72.972 237.3 73.14 237.812 73.316C238.332 73.492 238.836 73.692 239.324 73.916C239.82 74.132 240.26 74.408 240.644 74.744C241.036 75.08 241.348 75.492 241.58 75.98C241.82 76.468 241.94 77.068 241.94 77.78C241.94 78.532 241.812 79.24 241.556 79.904C241.3 80.56 240.924 81.132 240.428 81.62C239.94 82.108 239.336 82.492 238.616 82.772C237.904 83.052 237.092 83.192 236.18 83.192C235.06 83.192 234.044 82.992 233.132 82.592C232.22 82.184 231.44 81.636 230.792 80.948L231.464 79.844C231.528 79.756 231.604 79.684 231.692 79.628C231.788 79.564 231.892 79.532 232.004 79.532C232.108 79.532 232.224 79.576 232.352 79.664C232.488 79.744 232.64 79.848 232.808 79.976C232.976 80.104 233.168 80.244 233.384 80.396C233.6 80.548 233.844 80.688 234.116 80.816C234.396 80.944 234.712 81.052 235.064 81.14C235.416 81.22 235.812 81.26 236.252 81.26C236.804 81.26 237.296 81.184 237.728 81.032C238.16 80.88 238.524 80.668 238.82 80.396C239.124 80.116 239.356 79.784 239.516 79.4C239.676 79.016 239.756 78.588 239.756 78.116C239.756 77.596 239.636 77.172 239.396 76.844C239.164 76.508 238.856 76.228 238.472 76.004C238.088 75.78 237.648 75.592 237.152 75.44C236.656 75.28 236.152 75.12 235.64 74.96C235.128 74.792 234.624 74.6 234.128 74.384C233.632 74.168 233.192 73.888 232.808 73.544C232.424 73.2 232.112 72.772 231.872 72.26C231.64 71.74 231.524 71.1 231.524 70.34C231.524 69.732 231.64 69.144 231.872 68.576C232.112 68.008 232.456 67.504 232.904 67.064C233.36 66.624 233.916 66.272 234.572 66.008C235.236 65.744 235.996 65.612 236.852 65.612C237.812 65.612 238.684 65.764 239.468 66.068C240.26 66.372 240.956 66.812 241.556 67.388L240.992 68.492ZM259.159 65.804V83H256.831V75.176H247.555V83H245.227V65.804H247.555V73.472H256.831V65.804H259.159ZM279.443 74.408C279.443 75.696 279.239 76.88 278.831 77.96C278.423 79.032 277.847 79.956 277.103 80.732C276.359 81.508 275.463 82.112 274.415 82.544C273.375 82.968 272.223 83.18 270.959 83.18C269.695 83.18 268.543 82.968 267.503 82.544C266.463 82.112 265.571 81.508 264.827 80.732C264.083 79.956 263.507 79.032 263.099 77.96C262.691 76.88 262.487 75.696 262.487 74.408C262.487 73.12 262.691 71.94 263.099 70.868C263.507 69.788 264.083 68.86 264.827 68.084C265.571 67.3 266.463 66.692 267.503 66.26C268.543 65.828 269.695 65.612 270.959 65.612C272.223 65.612 273.375 65.828 274.415 66.26C275.463 66.692 276.359 67.3 277.103 68.084C277.847 68.86 278.423 69.788 278.831 70.868C279.239 71.94 279.443 73.12 279.443 74.408ZM277.055 74.408C277.055 73.352 276.911 72.404 276.623 71.564C276.335 70.724 275.927 70.016 275.399 69.44C274.871 68.856 274.231 68.408 273.479 68.096C272.727 67.784 271.887 67.628 270.959 67.628C270.039 67.628 269.203 67.784 268.451 68.096C267.699 68.408 267.055 68.856 266.519 69.44C265.991 70.016 265.583 70.724 265.295 71.564C265.007 72.404 264.863 73.352 264.863 74.408C264.863 75.464 265.007 76.412 265.295 77.252C265.583 78.084 265.991 78.792 266.519 79.376C267.055 79.952 267.699 80.396 268.451 80.708C269.203 81.012 270.039 81.164 270.959 81.164C271.887 81.164 272.727 81.012 273.479 80.708C274.231 80.396 274.871 79.952 275.399 79.376C275.927 78.792 276.335 78.084 276.623 77.252C276.911 76.412 277.055 75.464 277.055 74.408ZM287.85 74.72C288.514 74.72 289.098 74.632 289.602 74.456C290.114 74.28 290.542 74.036 290.886 73.724C291.238 73.404 291.502 73.024 291.678 72.584C291.854 72.144 291.942 71.66 291.942 71.132C291.942 70.036 291.602 69.18 290.922 68.564C290.25 67.948 289.226 67.64 287.85 67.64H285.09V74.72H287.85ZM287.85 65.804C288.938 65.804 289.882 65.932 290.682 66.188C291.49 66.436 292.158 66.792 292.686 67.256C293.214 67.72 293.606 68.28 293.862 68.936C294.126 69.592 294.258 70.324 294.258 71.132C294.258 71.932 294.118 72.664 293.838 73.328C293.558 73.992 293.146 74.564 292.602 75.044C292.066 75.524 291.398 75.9 290.598 76.172C289.806 76.436 288.89 76.568 287.85 76.568H285.09V83H282.774V65.804H287.85ZM302.264 74.72C302.928 74.72 303.512 74.632 304.016 74.456C304.528 74.28 304.956 74.036 305.3 73.724C305.652 73.404 305.916 73.024 306.092 72.584C306.268 72.144 306.356 71.66 306.356 71.132C306.356 70.036 306.016 69.18 305.336 68.564C304.664 67.948 303.64 67.64 302.264 67.64H299.504V74.72H302.264ZM302.264 65.804C303.352 65.804 304.296 65.932 305.096 66.188C305.904 66.436 306.572 66.792 307.1 67.256C307.628 67.72 308.02 68.28 308.276 68.936C308.54 69.592 308.672 70.324 308.672 71.132C308.672 71.932 308.532 72.664 308.252 73.328C307.972 73.992 307.56 74.564 307.016 75.044C306.48 75.524 305.812 75.9 305.012 76.172C304.22 76.436 303.304 76.568 302.264 76.568H299.504V83H297.188V65.804H302.264ZM313.93 83H311.602V65.804H313.93V83ZM332.261 65.804V83H331.097C330.913 83 330.757 82.968 330.629 82.904C330.509 82.84 330.389 82.732 330.269 82.58L320.321 69.62C320.337 69.82 320.349 70.016 320.357 70.208C320.365 70.4 320.369 70.58 320.369 70.748V83H318.329V65.804H319.529C319.633 65.804 319.721 65.812 319.793 65.828C319.865 65.836 319.929 65.856 319.985 65.888C320.041 65.912 320.097 65.952 320.153 66.008C320.209 66.056 320.269 66.12 320.333 66.2L330.281 79.148C330.265 78.94 330.249 78.74 330.233 78.548C330.225 78.348 330.221 78.16 330.221 77.984V65.804H332.261ZM350.625 74.732V81.332C349.761 81.956 348.837 82.424 347.853 82.736C346.877 83.04 345.805 83.192 344.637 83.192C343.253 83.192 342.005 82.98 340.893 82.556C339.781 82.124 338.829 81.524 338.037 80.756C337.253 79.98 336.649 79.052 336.225 77.972C335.801 76.892 335.589 75.704 335.589 74.408C335.589 73.096 335.793 71.9 336.201 70.82C336.617 69.74 337.205 68.816 337.965 68.048C338.725 67.272 339.649 66.672 340.737 66.248C341.825 65.824 343.041 65.612 344.385 65.612C345.065 65.612 345.697 65.664 346.281 65.768C346.865 65.864 347.405 66.008 347.901 66.2C348.397 66.384 348.857 66.612 349.281 66.884C349.705 67.148 350.101 67.448 350.469 67.784L349.809 68.84C349.705 69 349.569 69.104 349.401 69.152C349.241 69.192 349.061 69.152 348.861 69.032C348.669 68.92 348.449 68.784 348.201 68.624C347.953 68.464 347.649 68.312 347.289 68.168C346.937 68.016 346.517 67.888 346.029 67.784C345.549 67.68 344.977 67.628 344.313 67.628C343.345 67.628 342.469 67.788 341.685 68.108C340.901 68.42 340.233 68.872 339.681 69.464C339.129 70.048 338.705 70.76 338.409 71.6C338.113 72.432 337.965 73.368 337.965 74.408C337.965 75.488 338.117 76.456 338.421 77.312C338.733 78.16 339.173 78.884 339.741 79.484C340.317 80.076 341.013 80.528 341.829 80.84C342.645 81.152 343.561 81.308 344.577 81.308C345.377 81.308 346.085 81.22 346.701 81.044C347.325 80.86 347.933 80.608 348.525 80.288V76.508H345.849C345.697 76.508 345.573 76.464 345.477 76.376C345.389 76.288 345.345 76.18 345.345 76.052V74.732H350.625ZM372.401 79.448C372.529 79.448 372.641 79.5 372.737 79.604L373.661 80.6C372.957 81.416 372.101 82.052 371.093 82.508C370.093 82.964 368.881 83.192 367.457 83.192C366.225 83.192 365.105 82.98 364.097 82.556C363.089 82.124 362.229 81.524 361.517 80.756C360.805 79.98 360.253 79.052 359.861 77.972C359.469 76.892 359.273 75.704 359.273 74.408C359.273 73.112 359.477 71.924 359.885 70.844C360.293 69.764 360.865 68.836 361.601 68.06C362.345 67.284 363.233 66.684 364.265 66.26C365.297 65.828 366.437 65.612 367.685 65.612C368.909 65.612 369.989 65.808 370.925 66.2C371.861 66.592 372.685 67.124 373.397 67.796L372.629 68.864C372.581 68.944 372.517 69.012 372.437 69.068C372.365 69.116 372.265 69.14 372.137 69.14C371.993 69.14 371.817 69.064 371.609 68.912C371.401 68.752 371.129 68.576 370.793 68.384C370.457 68.192 370.037 68.02 369.533 67.868C369.029 67.708 368.409 67.628 367.673 67.628C366.785 67.628 365.973 67.784 365.237 68.096C364.501 68.4 363.865 68.844 363.329 69.428C362.801 70.012 362.389 70.724 362.093 71.564C361.797 72.404 361.649 73.352 361.649 74.408C361.649 75.48 361.801 76.436 362.105 77.276C362.417 78.116 362.837 78.828 363.365 79.412C363.901 79.988 364.529 80.428 365.249 80.732C365.977 81.036 366.761 81.188 367.601 81.188C368.113 81.188 368.573 81.16 368.981 81.104C369.397 81.04 369.777 80.944 370.121 80.816C370.473 80.688 370.797 80.528 371.093 80.336C371.397 80.136 371.697 79.9 371.993 79.628C372.129 79.508 372.265 79.448 372.401 79.448ZM385.492 76.616L382.792 69.62C382.712 69.412 382.628 69.172 382.54 68.9C382.452 68.62 382.368 68.324 382.288 68.012C382.12 68.66 381.948 69.2 381.772 69.632L379.072 76.616H385.492ZM390.34 83H388.54C388.332 83 388.164 82.948 388.036 82.844C387.908 82.74 387.812 82.608 387.748 82.448L386.14 78.296H378.424L376.816 82.448C376.768 82.592 376.676 82.72 376.54 82.832C376.404 82.944 376.236 83 376.036 83H374.236L381.112 65.804H383.464L390.34 83ZM397.366 74.132C398.038 74.132 398.63 74.052 399.142 73.892C399.662 73.724 400.094 73.492 400.438 73.196C400.79 72.892 401.054 72.532 401.23 72.116C401.406 71.7 401.494 71.24 401.494 70.736C401.494 69.712 401.158 68.94 400.486 68.42C399.814 67.9 398.806 67.64 397.462 67.64H394.918V74.132H397.366ZM405.31 83H403.246C402.822 83 402.51 82.836 402.31 82.508L397.846 76.364C397.71 76.172 397.562 76.036 397.402 75.956C397.25 75.868 397.01 75.824 396.682 75.824H394.918V83H392.602V65.804H397.462C398.55 65.804 399.49 65.916 400.282 66.14C401.074 66.356 401.726 66.672 402.238 67.088C402.758 67.504 403.142 68.008 403.39 68.6C403.638 69.184 403.762 69.84 403.762 70.568C403.762 71.176 403.666 71.744 403.474 72.272C403.282 72.8 403.002 73.276 402.634 73.7C402.274 74.116 401.83 74.472 401.302 74.768C400.782 75.064 400.19 75.288 399.526 75.44C399.822 75.608 400.078 75.852 400.294 76.172L405.31 83ZM418.715 67.76H413.147V83H410.831V67.76H405.251V65.804H418.715V67.76Z" fill="#F16D7F"/>
</svg>
