<svg width="1600" height="148" viewBox="0 0 1600 148" fill="none" xmlns="http://www.w3.org/2000/svg">
<path d="M1600 0H0V148H1600V0Z" fill="#F8F3F4"/>
<path d="M236.96 74.132C237.632 74.132 238.224 74.052 238.736 73.892C239.256 73.724 239.688 73.492 240.032 73.196C240.384 72.892 240.648 72.532 240.824 72.116C241 71.7 241.088 71.24 241.088 70.736C241.088 69.712 240.752 68.94 240.08 68.42C239.408 67.9 238.4 67.64 237.056 67.64H234.512V74.132H236.96ZM244.904 83H242.84C242.416 83 242.104 82.836 241.904 82.508L237.44 76.364C237.304 76.172 237.156 76.036 236.996 75.956C236.844 75.868 236.604 75.824 236.276 75.824H234.512V83H232.196V65.804H237.056C238.144 65.804 239.084 65.916 239.876 66.14C240.668 66.356 241.32 66.672 241.832 67.088C242.352 67.504 242.736 68.008 242.984 68.6C243.232 69.184 243.356 69.84 243.356 70.568C243.356 71.176 243.26 71.744 243.068 72.272C242.876 72.8 242.596 73.276 242.228 73.7C241.868 74.116 241.424 74.472 240.896 74.768C240.376 75.064 239.784 75.288 239.12 75.44C239.416 75.608 239.672 75.852 239.888 76.172L244.904 83ZM257.851 81.104L257.839 83H247.243V65.804H257.839V67.7H249.571V73.412H256.267V75.236H249.571V81.104H257.851ZM274.687 74.732V81.332C273.823 81.956 272.899 82.424 271.915 82.736C270.939 83.04 269.867 83.192 268.699 83.192C267.315 83.192 266.067 82.98 264.955 82.556C263.843 82.124 262.891 81.524 262.099 80.756C261.315 79.98 260.711 79.052 260.287 77.972C259.863 76.892 259.651 75.704 259.651 74.408C259.651 73.096 259.855 71.9 260.263 70.82C260.679 69.74 261.267 68.816 262.027 68.048C262.787 67.272 263.711 66.672 264.799 66.248C265.887 65.824 267.103 65.612 268.447 65.612C269.127 65.612 269.759 65.664 270.343 65.768C270.927 65.864 271.467 66.008 271.963 66.2C272.459 66.384 272.919 66.612 273.343 66.884C273.767 67.148 274.163 67.448 274.531 67.784L273.871 68.84C273.767 69 273.631 69.104 273.463 69.152C273.303 69.192 273.123 69.152 272.923 69.032C272.731 68.92 272.511 68.784 272.263 68.624C272.015 68.464 271.711 68.312 271.351 68.168C270.999 68.016 270.579 67.888 270.091 67.784C269.611 67.68 269.039 67.628 268.375 67.628C267.407 67.628 266.531 67.788 265.747 68.108C264.963 68.42 264.295 68.872 263.743 69.464C263.191 70.048 262.767 70.76 262.471 71.6C262.175 72.432 262.027 73.368 262.027 74.408C262.027 75.488 262.179 76.456 262.483 77.312C262.795 78.16 263.235 78.884 263.803 79.484C264.379 80.076 265.075 80.528 265.891 80.84C266.707 81.152 267.623 81.308 268.639 81.308C269.439 81.308 270.147 81.22 270.763 81.044C271.387 80.86 271.995 80.608 272.587 80.288V76.508H269.911C269.759 76.508 269.635 76.464 269.539 76.376C269.451 76.288 269.407 76.18 269.407 76.052V74.732H274.687ZM280.579 83H278.251V65.804H280.579V83ZM293.773 68.492C293.701 68.612 293.621 68.704 293.533 68.768C293.453 68.824 293.353 68.852 293.233 68.852C293.097 68.852 292.937 68.784 292.753 68.648C292.569 68.512 292.337 68.364 292.057 68.204C291.785 68.036 291.453 67.884 291.061 67.748C290.677 67.612 290.209 67.544 289.657 67.544C289.137 67.544 288.677 67.616 288.277 67.76C287.885 67.896 287.553 68.084 287.281 68.324C287.017 68.564 286.817 68.848 286.681 69.176C286.545 69.496 286.477 69.844 286.477 70.22C286.477 70.7 286.593 71.1 286.825 71.42C287.065 71.732 287.377 72 287.761 72.224C288.153 72.448 288.593 72.644 289.081 72.812C289.577 72.972 290.081 73.14 290.593 73.316C291.113 73.492 291.617 73.692 292.105 73.916C292.601 74.132 293.041 74.408 293.425 74.744C293.817 75.08 294.129 75.492 294.361 75.98C294.601 76.468 294.721 77.068 294.721 77.78C294.721 78.532 294.593 79.24 294.337 79.904C294.081 80.56 293.705 81.132 293.209 81.62C292.721 82.108 292.117 82.492 291.397 82.772C290.685 83.052 289.873 83.192 288.961 83.192C287.841 83.192 286.825 82.992 285.913 82.592C285.001 82.184 284.221 81.636 283.573 80.948L284.245 79.844C284.309 79.756 284.385 79.684 284.473 79.628C284.569 79.564 284.673 79.532 284.785 79.532C284.889 79.532 285.005 79.576 285.133 79.664C285.269 79.744 285.421 79.848 285.589 79.976C285.757 80.104 285.949 80.244 286.165 80.396C286.381 80.548 286.625 80.688 286.897 80.816C287.177 80.944 287.493 81.052 287.845 81.14C288.197 81.22 288.593 81.26 289.033 81.26C289.585 81.26 290.077 81.184 290.509 81.032C290.941 80.88 291.305 80.668 291.601 80.396C291.905 80.116 292.137 79.784 292.297 79.4C292.457 79.016 292.537 78.588 292.537 78.116C292.537 77.596 292.417 77.172 292.177 76.844C291.945 76.508 291.637 76.228 291.253 76.004C290.869 75.78 290.429 75.592 289.933 75.44C289.437 75.28 288.933 75.12 288.421 74.96C287.909 74.792 287.405 74.6 286.909 74.384C286.413 74.168 285.973 73.888 285.589 73.544C285.205 73.2 284.893 72.772 284.653 72.26C284.421 71.74 284.305 71.1 284.305 70.34C284.305 69.732 284.421 69.144 284.653 68.576C284.893 68.008 285.237 67.504 285.685 67.064C286.141 66.624 286.697 66.272 287.353 66.008C288.017 65.744 288.777 65.612 289.633 65.612C290.593 65.612 291.465 65.764 292.249 66.068C293.041 66.372 293.737 66.812 294.337 67.388L293.773 68.492ZM309.637 67.76H304.069V83H301.753V67.76H296.173V65.804H309.637V67.76ZM316.952 74.132C317.624 74.132 318.216 74.052 318.728 73.892C319.248 73.724 319.68 73.492 320.024 73.196C320.376 72.892 320.64 72.532 320.816 72.116C320.992 71.7 321.08 71.24 321.08 70.736C321.08 69.712 320.744 68.94 320.072 68.42C319.4 67.9 318.392 67.64 317.048 67.64H314.504V74.132H316.952ZM324.896 83H322.832C322.408 83 322.096 82.836 321.896 82.508L317.432 76.364C317.296 76.172 317.148 76.036 316.988 75.956C316.836 75.868 316.596 75.824 316.268 75.824H314.504V83H312.188V65.804H317.048C318.136 65.804 319.076 65.916 319.868 66.14C320.66 66.356 321.312 66.672 321.824 67.088C322.344 67.504 322.728 68.008 322.976 68.6C323.224 69.184 323.348 69.84 323.348 70.568C323.348 71.176 323.252 71.744 323.06 72.272C322.868 72.8 322.588 73.276 322.22 73.7C321.86 74.116 321.416 74.472 320.888 74.768C320.368 75.064 319.776 75.288 319.112 75.44C319.408 75.608 319.664 75.852 319.88 76.172L324.896 83ZM336.367 76.616L333.667 69.62C333.587 69.412 333.503 69.172 333.415 68.9C333.327 68.62 333.243 68.324 333.163 68.012C332.995 68.66 332.823 69.2 332.647 69.632L329.947 76.616H336.367ZM341.215 83H339.415C339.207 83 339.039 82.948 338.911 82.844C338.783 82.74 338.687 82.608 338.623 82.448L337.015 78.296H329.299L327.691 82.448C327.643 82.592 327.551 82.72 327.415 82.832C327.279 82.944 327.111 83 326.911 83H325.111L331.987 65.804H334.339L341.215 83ZM353.418 67.76H347.85V83H345.534V67.76H339.954V65.804H353.418V67.76ZM358.297 83H355.969V65.804H358.297V83ZM378.584 74.408C378.584 75.696 378.38 76.88 377.972 77.96C377.564 79.032 376.988 79.956 376.244 80.732C375.5 81.508 374.604 82.112 373.556 82.544C372.516 82.968 371.364 83.18 370.1 83.18C368.836 83.18 367.684 82.968 366.644 82.544C365.604 82.112 364.712 81.508 363.968 80.732C363.224 79.956 362.648 79.032 362.24 77.96C361.832 76.88 361.628 75.696 361.628 74.408C361.628 73.12 361.832 71.94 362.24 70.868C362.648 69.788 363.224 68.86 363.968 68.084C364.712 67.3 365.604 66.692 366.644 66.26C367.684 65.828 368.836 65.612 370.1 65.612C371.364 65.612 372.516 65.828 373.556 66.26C374.604 66.692 375.5 67.3 376.244 68.084C376.988 68.86 377.564 69.788 377.972 70.868C378.38 71.94 378.584 73.12 378.584 74.408ZM376.196 74.408C376.196 73.352 376.052 72.404 375.764 71.564C375.476 70.724 375.068 70.016 374.54 69.44C374.012 68.856 373.372 68.408 372.62 68.096C371.868 67.784 371.028 67.628 370.1 67.628C369.18 67.628 368.344 67.784 367.592 68.096C366.84 68.408 366.196 68.856 365.66 69.44C365.132 70.016 364.724 70.724 364.436 71.564C364.148 72.404 364.004 73.352 364.004 74.408C364.004 75.464 364.148 76.412 364.436 77.252C364.724 78.084 365.132 78.792 365.66 79.376C366.196 79.952 366.84 80.396 367.592 80.708C368.344 81.012 369.18 81.164 370.1 81.164C371.028 81.164 371.868 81.012 372.62 80.708C373.372 80.396 374.012 79.952 374.54 79.376C375.068 78.792 375.476 78.084 375.764 77.252C376.052 76.412 376.196 75.464 376.196 74.408ZM395.847 65.804V83H394.683C394.499 83 394.343 82.968 394.215 82.904C394.095 82.84 393.975 82.732 393.855 82.58L383.907 69.62C383.923 69.82 383.935 70.016 383.943 70.208C383.951 70.4 383.955 70.58 383.955 70.748V83H381.915V65.804H383.115C383.219 65.804 383.307 65.812 383.379 65.828C383.451 65.836 383.515 65.856 383.571 65.888C383.627 65.912 383.683 65.952 383.739 66.008C383.795 66.056 383.855 66.12 383.919 66.2L393.867 79.148C393.851 78.94 393.835 78.74 393.819 78.548C393.811 78.348 393.807 78.16 393.807 77.984V65.804H395.847Z" fill="#F16D7F"/>
</svg>
